<!DOCTYPE svg PUBLIC "-//W3C//DTD SVG 1.1//EN" "http://www.w3.org/Graphics/SVG/1.1/DTD/svg11.dtd">
<!-- Uploaded to: SVG Repo, www.svgrepo.com, Transformed by: SVG Repo Mixer Tools -->
<svg height="800px" width="800px" version="1.1" id="Layer_1" xmlns="http://www.w3.org/2000/svg" xmlns:xlink="http://www.w3.org/1999/xlink" viewBox="0 0 512 512" xml:space="preserve" fill="#000000">
<g id="SVGRepo_bgCarrier" stroke-width="0"/>
<g id="SVGRepo_tracerCarrier" stroke-linecap="round" stroke-linejoin="round"/>
<g id="SVGRepo_iconCarrier"> <circle style="fill:#C1321F;" cx="256" cy="256" r="256"/> <path style="fill:#A82116;" d="M505.391,314.037L294.788,103.434l-37.279,35.914v65.967l-39.434-1.033l-62.635,82.747 l16.377,104.584l118.272,118.122C396.095,495.628,481.602,416.666,505.391,314.037z"/> <polygon style="fill:#84DBFF;" points="307.717,129.293 204.283,129.293 217.212,103.434 294.788,103.434 "/> <polygon style="fill:#31BAFD;" points="294.788,103.434 256,103.434 256,129.293 307.717,129.293 "/> <polygon style="fill:#B5F1F4;" points="204.283,129.293 256,193.939 307.717,129.293 "/> <polygon style="fill:#31BAFD;" points="230.533,129.293 256,193.939 281.467,129.293 "/> <polygon style="fill:#2B9ED8;" points="256,129.293 256,193.938 281.467,129.293 "/> <polygon style="fill:#B5F1F4;" points="294.788,103.434 281.467,129.293 256,103.434 230.533,129.293 217.212,103.434 "/> <path style="fill:#FFD15D;" d="M256,188.768c-65.695,0-118.949,53.255-118.949,118.949S190.305,426.667,256,426.667 s118.949-53.255,118.949-118.949S321.695,188.768,256,188.768z M256,396.929c-49.271,0-89.212-39.941-89.212-89.212 s39.941-89.212,89.212-89.212s89.212,39.941,89.212,89.212S305.271,396.929,256,396.929z"/> <path style="fill:#F9B54C;" d="M374.949,307.717c0-65.695-53.255-118.949-118.949-118.949v29.737 c49.271,0,89.212,39.941,89.212,89.212S305.271,396.929,256,396.929v29.737C321.695,426.667,374.949,373.412,374.949,307.717z"/> </g>
</svg>